HIERARCHY
ROOT hip
{
  OFFSET 0 0 0
  CHANNELS 6 Xposition Yposition Zposition Zrotation Yrotation Xrotation
  JOINT abdomen
  {
    OFFSET 0 20.6881 -0.73152
    CHANNELS 3 Zrotation Xrotation Yrotation
    JOINT chest
    {
      OFFSET 0 11.7043 -0.48768
      CHANNELS 3 Zrotation Xrotation Yrotation
      JOINT neck
      {
        OFFSET 0 22.1894 -2.19456
        CHANNELS 3 Zrotation Xrotation Yrotation
        JOINT head
        {
          OFFSET -0.24384 7.07133 1.2192
          CHANNELS 3 Zrotation Xrotation Yrotation
          JOINT leftEye
          {
            OFFSET 4.14528 8.04674 8.04672
            CHANNELS 3 Zrotation Xrotation Yrotation
            End Site
            {
              OFFSET 1 0 0
            }
          }
          JOINT rightEye
          {
            OFFSET -3.6576 8.04674 8.04672
            CHANNELS 3 Zrotation Xrotation Yrotation
            End Site
            {
              OFFSET 1 0 0
            }
          }
        }
      }
      JOINT rCollar
      {
        OFFSET -2.68224 19.2634 -4.8768
        CHANNELS 3 Zrotation Xrotation Yrotation
        JOINT rShldr
        {
          OFFSET -8.77824 -1.95073 1.46304
          CHANNELS 3 Zrotation Xrotation Yrotation
          JOINT rForeArm
          {
            OFFSET -28.1742 -1.7115 0.48768
            CHANNELS 3 Zrotation Xrotation Yrotation
            JOINT rHand
            {
              OFFSET -22.5879 0.773209 7.07136
              CHANNELS 3 Zrotation Xrotation Yrotation
              JOINT rThumb1
              {
                OFFSET -1.2192 -0.487915 3.41376
                CHANNELS 3 Zrotation Xrotation Yrotation
                JOINT rThumb2
                {
                  OFFSET -3.37035 -0.52449 3.41376
                  CHANNELS 3 Zrotation Xrotation Yrotation
                  End Site
                  {
                    OFFSET -1.78271 -1.18214 1.43049
                  }
                }
              }
              JOINT rIndex1
              {
                OFFSET -7.75947 0.938293 5.60832
                CHANNELS 3 Zrotation Xrotation Yrotation
                JOINT rIndex2
                {
                  OFFSET -2.54057 -0.884171 1.56538
                  CHANNELS 3 Zrotation Xrotation Yrotation
                  End Site
                  {
                    OFFSET -1.62519 -0.234802 1.16502
                  }
                }
              }
              JOINT rMid1
              {
                OFFSET -8.24714 1.18213 3.41376
                CHANNELS 3 Zrotation Xrotation Yrotation
                JOINT rMid2
                {
                  OFFSET -3.10165 -0.590103 1.0647
                  CHANNELS 3 Zrotation Xrotation Yrotation
                  End Site
                  {
                    OFFSET -2.48547 -0.328903 0.83742
                  }
                }
              }
              JOINT rRing1
              {
                OFFSET -8.82822 0.546677 1.51678
                CHANNELS 3 Zrotation Xrotation Yrotation
                JOINT rRing2
                {
                  OFFSET -2.60934 -0.819778 -0.0198488
                  CHANNELS 3 Zrotation Xrotation Yrotation
                  End Site
                  {
                    OFFSET -2.33842 -0.294052 0.168128
                  }
                }
              }
              JOINT rPinky1
              {
                OFFSET -8.27202 -0.0477905 -0.4584
                CHANNELS 3 Zrotation Xrotation Yrotation
                JOINT rPinky2
                {
                  OFFSET -1.82734 -0.647385 -0.700984
                  CHANNELS 3 Zrotation Xrotation Yrotation
                  End Site
                  {
                    OFFSET -1.69225 -0.51767 -0.607171
                  }
                }
              }
            }
          }
        }
      }
      JOINT lCollar
      {
        OFFSET 2.68224 19.2634 -4.8768
        CHANNELS 3 Zrotation Xrotation Yrotation
        JOINT lShldr
        {
          OFFSET 8.77824 -1.95073 1.46304
          CHANNELS 3 Zrotation Xrotation Yrotation
          JOINT lForeArm
          {
            OFFSET 28.1742 -1.7115 0.48768
            CHANNELS 3 Zrotation Xrotation Yrotation
            JOINT lHand
            {
              OFFSET 22.5879 0.773209 7.07136
              CHANNELS 3 Zrotation Xrotation Yrotation
              JOINT lThumb1
              {
                OFFSET 1.2192 -0.487915 3.41376
                CHANNELS 3 Zrotation Xrotation Yrotation
                JOINT lThumb2
                {
                  OFFSET 3.37035 -0.52449 3.41376
                  CHANNELS 3 Zrotation Xrotation Yrotation
                  End Site
                  {
                    OFFSET 1.78271 -1.18214 1.43049
                  }
                }
              }
              JOINT lIndex1
              {
                OFFSET 7.75947 0.938293 5.60832
                CHANNELS 3 Zrotation Xrotation Yrotation
                JOINT lIndex2
                {
                  OFFSET 2.54057 -0.884171 1.56538
                  CHANNELS 3 Zrotation Xrotation Yrotation
                  End Site
                  {
                    OFFSET 1.62519 -0.234802 1.16502
                  }
                }
              }
              JOINT lMid1
              {
                OFFSET 8.24714 1.18213 3.41376
                CHANNELS 3 Zrotation Xrotation Yrotation
                JOINT lMid2
                {
                  OFFSET 3.10165 -0.590103 1.0647
                  CHANNELS 3 Zrotation Xrotation Yrotation
                  End Site
                  {
                    OFFSET 2.48547 -0.328903 0.83742
                  }
                }
              }
              JOINT lRing1
              {
                OFFSET 8.82822 0.546677 1.51678
                CHANNELS 3 Zrotation Xrotation Yrotation
                JOINT lRing2
                {
                  OFFSET 2.60934 -0.819778 -0.0198488
                  CHANNELS 3 Zrotation Xrotation Yrotation
                  End Site
                  {
                    OFFSET 2.33842 -0.294052 0.168128
                  }
                }
              }
              JOINT lPinky1
              {
                OFFSET 8.27202 -0.0477905 -0.4584
                CHANNELS 3 Zrotation Xrotation Yrotation
                JOINT lPinky2
                {
                  OFFSET 1.82734 -0.647385 -0.700984
                  CHANNELS 3 Zrotation Xrotation Yrotation
                  End Site
                  {
                    OFFSET 1.69225 -0.51767 -0.607171
                  }
                }
              }
            }
          }
        }
      }
    }
  }
  JOINT rButtock
  {
    OFFSET -8.77824 4.35084 1.2192
    CHANNELS 3 Zrotation Xrotation Yrotation
    JOINT rThigh
    {
      OFFSET 0 -1.70687 -2.19456
      CHANNELS 3 Zrotation Xrotation Yrotation
      JOINT rShin
      {
        OFFSET 0 -36.8199 0.73152
        CHANNELS 3 Zrotation Xrotation Yrotation
        JOINT rFoot
        {
          OFFSET 0.73152 -45.1104 -5.12064
          CHANNELS 3 Zrotation Xrotation Yrotation
          End Site
          {
            OFFSET -1.1221 -3.69964 12.103
          }
        }
      }
    }
  }
  JOINT lButtock
  {
    OFFSET 8.77824 4.35084 1.2192
    CHANNELS 3 Zrotation Xrotation Yrotation
    JOINT lThigh
    {
      OFFSET 0 -1.70687 -2.19456
      CHANNELS 3 Zrotation Xrotation Yrotation
      JOINT lShin
      {
        OFFSET 0 -36.8199 0.73152
        CHANNELS 3 Zrotation Xrotation Yrotation
        JOINT lFoot
        {
          OFFSET -0.73152 -45.1104 -5.12064
          CHANNELS 3 Zrotation Xrotation Yrotation
          End Site
          {
            OFFSET 1.1221 -3.69964 12.103
          }
        }
      }
    }
  }
}
MOTION
Frames:	4
Frame Time:	0.00833333
7.66642 69.6863 -25.6304 3.0074 -2.3365 -2.9238 2.83685 -7.25366 24.4756 -11.5598 2.45612 7.10034 -10.2791 18.1421 -8.05647 -10.4789 36.6974 -10.7372 -0.0 0.0 0.0 -0.0 0.0 0.0 8.82891e-14 -1.6857e-13 -1.84373e-13 44.6766 -18.687 87.9855 13.6143 -57.0346 -128.113 -8.21255 -60.1013 -14.1476 -1.44572e-10 2.5739e-09 6.51432e-10 -2.78001e-10 4.44045e-09 1.10991e-09 -1.4457e-10 2.57389e-09 6.51428e-10 7.73091 5.47488 0.417314 -1.44575e-10 2.5739e-09 6.51435e-10 2.90554 0.965183 0.102902 -1.44575e-10 2.5739e-09 6.51436e-10 10.2786 0.731801 0.0259123 -1.44583e-10 2.5739e-09 6.51448e-10 2.22167 -0.733487 -0.20892 8.82374e-14 -1.6857e-13 -1.84572e-13 -78.2197 47.2306 17.0992 14.9584 -7.75436 -27.503 0.492555 -19.543 2.85949 -1.05069e-09 -6.90094e-10 -3.0123e-11 -1.81505e-09 -1.18899e-09 -6.56792e-11 -1.05071e-09 -6.90095e-10 -3.01135e-11 -7.73091 5.47488 -0.417314 -1.05069e-09 -6.90093e-10 -3.01167e-11 -2.90554 0.965183 -0.102902 -1.05071e-09 -6.90092e-10 -3.0123e-11 -10.2786 0.731801 -0.0259123 -1.05069e-09 -6.90094e-10 -3.01358e-11 -2.22167 -0.733487 0.20892 -2.03217e-16 0.0 -3.88251e-19 -15.0732 -21.3067 -36.1814 -1.54986 68.4162 2.93157 -34.124 -32.2375 -47.5535 2.03217e-16 0.0 3.88251e-19 -1.5503 -41.557 -25.6991 0.0986792 22.8571 0.584077 1.63378 14.6929 -7.41414
7.66975 69.6875 -25.6216 2.9704 -2.2247 -2.9166 2.6977 -7.3125 24.4872 -11.5129 2.47528 7.1072 -10.4034 18.198 -8.09015 -10.294 36.6533 -10.8719 -0.0 0.0 0.0 -0.0 0.0 0.0 8.54568e-14 -1.57598e-13 -1.46956e-13 44.7054 -18.7899 88.0859 13.5447 -57.0645 -128.252 -8.2405 -60.1565 -14.1798 -1.01258e-10 2.58964e-09 6.4719e-10 -2.04206e-10 4.47582e-09 1.10515e-09 -1.01256e-10 2.58963e-09 6.47185e-10 7.73091 5.47488 0.417314 -1.01261e-10 2.58964e-09 6.47192e-10 2.90554 0.965183 0.102902 -1.0126e-10 2.58964e-09 6.47193e-10 10.2786 0.731801 0.0259123 -1.01267e-10 2.58964e-09 6.47205e-10 2.22167 -0.733487 -0.20892 8.54043e-14 -1.576e-13 -1.47195e-13 -78.3351 47.0987 17.1854 14.9291 -7.72899 -27.4429 0.487593 -19.4493 2.84466 -9.1868e-10 -6.64399e-10 -3.21152e-11 -1.58708e-09 -1.14548e-09 -6.72236e-11 -9.18697e-10 -6.644e-10 -3.21005e-11 -7.73091 5.47488 -0.417314 -9.1868e-10 -6.64397e-10 -3.21078e-11 -2.90554 0.965183 -0.102902 -9.18692e-10 -6.64397e-10 -3.21139e-11 -10.2786 0.731801 -0.0259123 -9.18678e-10 -6.64398e-10 -3.21252e-11 -2.22167 -0.733487 0.20892 -2.03217e-16 0.0 -3.88251e-19 -15.2983 -21.2786 -36.3568 -1.5577 68.441 2.93736 -34.0623 -32.2588 -47.476 2.03217e-16 0.0 3.88251e-19 -1.72742 -41.5798 -25.726 0.0995464 22.8237 0.585154 1.65523 14.6824 -7.50482
7.72594 69.6838 -25.6282 3.164 -2.0798 -2.846 2.58343 -7.34375 24.4976 -11.478 2.46475 7.11094 -10.5747 18.2512 -8.11421 -10.0287 36.6007 -11.0169 -0.0 0.0 0.0 -0.0 0.0 0.0 7.51705e-14 -1.23342e-13 -9.14906e-14 44.7253 -18.9151 88.1895 13.4653 -57.0984 -128.41 -8.27303 -60.2204 -14.2173 9.56961e-11 3.47346e-09 9.15034e-10 1.19107e-10 6.05647e-09 1.57672e-09 9.56979e-11 3.47345e-09 9.15026e-10 7.73091 5.47488 0.417314 9.56929e-11 3.47346e-09 9.15034e-10 2.90554 0.965183 0.102902 9.56953e-11 3.47346e-09 9.15036e-10 10.2786 0.731801 0.0259123 9.56895e-11 3.47346e-09 9.15046e-10 2.22167 -0.733487 -0.20892 7.51157e-14 -1.2335e-13 -9.17888e-14 -78.447 46.9427 17.2782 14.9106 -7.71308 -27.4048 0.482228 -19.3473 2.82852 -7.50915e-10 -7.08595e-10 5.28429e-11 -1.29872e-09 -1.22476e-09 8.2371e-11 -7.50927e-10 -7.08595e-10 5.28642e-11 -7.73091 5.47488 -0.417314 -7.50915e-10 -7.08592e-10 5.28505e-11 -2.90554 0.965183 -0.102902 -7.50927e-10 -7.08592e-10 5.2846e-11 -10.2786 0.731801 -0.0259123 -7.50914e-10 -7.08594e-10 5.2837e-11 -2.22167 -0.733487 0.20892 -2.03217e-16 0.0 -3.88251e-19 -15.4948 -21.2623 -36.5235 -1.56852 68.4704 2.94674 -34.0112 -32.3315 -47.3778 2.03217e-16 0.0 3.88251e-19 -1.87637 -41.6251 -25.7359 0.100918 22.8065 0.58566 1.68282 14.671 -7.6131
7.78739 69.6821 -25.6292 3.3972 -1.9881 -2.7898 2.51722 -7.3543 24.5139 -11.4604 2.4369 7.11419 -10.7532 18.2923 -8.13251 -9.7604 36.5599 -11.15 -0.0 0.0 0.0 -0.0 0.0 0.0 6.30947e-14 -8.34695e-14 -3.63232e-14 44.7566 -19.0323 88.295 13.3863 -57.1319 -128.567 -8.30531 -60.2835 -14.2545 3.16121e-10 4.51616e-09 1.23511e-09 4.80119e-10 7.91842e-09 2.13943e-09 3.16122e-10 4.51616e-09 1.23509e-09 7.73091 5.47488 0.417314 3.16117e-10 4.51616e-09 1.2351e-09 2.90554 0.965183 0.102902 3.16122e-10 4.51616e-09 1.23511e-09 10.2786 0.731801 0.0259123 3.16118e-10 4.51616e-09 1.23511e-09 2.22167 -0.733487 -0.20892 6.30384e-14 -8.34847e-14 -3.66804e-14 -78.5629 46.7871 17.3898 14.9006 -7.70456 -27.3843 0.477034 -19.2478 2.81279 -6.03936e-10 -7.97384e-10 1.48336e-10 -1.04652e-09 -1.38153e-09 2.49946e-10 -6.03942e-10 -7.97382e-10 1.48363e-10 -7.73091 5.47488 -0.417314 -6.03935e-10 -7.9738e-10 1.48343e-10 -2.90554 0.965183 -0.102902 -6.03947e-10 -7.97379e-10 1.4834e-10 -10.2786 0.731801 -0.0259123 -6.03935e-10 -7.97381e-10 1.48334e-10 -2.22167 -0.733487 0.20892 -2.03217e-16 0.0 -3.88251e-19 -15.6322 -21.2403 -36.6706 -1.57733 68.4857 2.9541 -33.96 -32.3842 -47.2922 2.03217e-16 0.0 3.88251e-19 -1.96361 -41.6676 -25.7163 0.102159 22.7971 0.585707 1.71203 14.6483 -7.73205
